<?xml version="1.0" standalone="no"?>
<!DOCTYPE svg PUBLIC "-//W3C//DTD SVG 20010904//EN"
 "http://www.w3.org/TR/2001/REC-SVG-20010904/DTD/svg10.dtd">
<svg version="1.0" xmlns="http://www.w3.org/2000/svg"
 width="948.000000pt" height="571.000000pt" viewBox="0 0 948.000000 571.000000"
 preserveAspectRatio="xMidYMid meet">

<g transform="translate(0.000000,571.000000) scale(0.100000,-0.100000)"
fill="#000000" stroke="none">
<path d="M5426 4744 c-86 -31 -110 -76 -110 -204 -1 -170 44 -215 219 -215
165 0 212 39 222 183 9 133 -26 206 -114 236 -57 20 -164 20 -217 0z"/>
<path d="M4266 4050 c-82 -17 -217 -75 -272 -115 -21 -15 -23 -14 -42 19 -33
56 -90 79 -205 84 -89 4 -329 -12 -385 -25 -22 -5 -23 -7 -20 -137 l3 -131
102 -3 103 -3 2 -592 3 -592 210 0 210 0 3 561 2 561 78 14 c93 17 281 17 339
1 48 -14 88 -56 103 -110 6 -23 10 -199 10 -457 0 -274 4 -434 11 -460 33
-117 147 -145 454 -110 72 8 134 15 138 15 4 0 6 60 5 133 l-3 132 -92 3 -93
3 0 407 c0 311 -4 423 -14 473 -37 171 -149 292 -309 335 -73 19 -234 16 -341
-6z"/>
<path d="M1655 4029 c-150 -14 -136 2 -133 -152 l3 -132 92 -3 91 -3 4 -427 4
-427 27 -81 c15 -44 40 -99 56 -121 37 -51 123 -108 214 -141 63 -22 88 -26
197 -26 104 -1 137 3 200 22 76 24 174 70 222 103 35 25 41 24 56 -11 34 -76
141 -100 367 -81 86 7 172 15 191 18 l35 6 -3 131 -3 131 -92 3 -93 3 0 498
c0 292 -4 520 -10 551 -14 75 -48 116 -112 135 -60 17 -184 19 -343 5 -173
-16 -156 2 -153 -153 l3 -132 93 -3 92 -3 -2 -417 -3 -417 -75 -13 c-43 -7
-128 -12 -200 -10 -110 3 -130 6 -167 27 -73 42 -73 42 -73 524 0 253 -5 440
-11 467 -15 67 -50 107 -111 125 -57 17 -209 18 -363 4z"/>
<path d="M5370 4030 c-47 -5 -104 -12 -128 -15 l-43 -6 3 -132 3 -132 98 -3
97 -3 0 -599 0 -600 216 0 215 0 -3 678 -3 677 -24 48 c-36 73 -76 90 -226 93
-66 1 -158 -1 -205 -6z"/>
<path d="M6073 4024 c-2 -5 -2 -71 -1 -145 l3 -134 88 -5 88 -5 2 -595 2 -595
213 -3 212 -2 0 210 0 210 113 0 112 0 34 -63 c179 -328 400 -709 429 -740 58
-59 113 -71 302 -64 85 4 183 10 218 13 l62 7 0 133 0 133 -121 3 -122 3 -188
315 c-104 173 -189 320 -189 326 0 6 18 16 39 23 60 17 156 87 195 139 48 66
74 138 85 233 27 246 -71 431 -281 529 -157 72 -169 74 -762 80 -365 3 -530 2
-533 -6z m1019 -303 c96 -37 138 -104 138 -221 0 -106 -67 -199 -169 -236 -33
-12 -92 -18 -213 -21 l-168 -5 0 257 0 257 178 -4 c152 -4 185 -8 234 -27z"/>
<path d="M5005 2076 c-47 -21 -68 -50 -68 -97 0 -54 28 -80 117 -109 77 -25
106 -48 106 -85 0 -56 -79 -96 -151 -78 -29 8 -34 14 -37 42 -5 45 -36 39 -40
-8 -4 -43 2 -49 66 -61 117 -22 202 26 202 114 0 58 -41 95 -120 110 -19 3
-50 15 -67 26 -27 16 -33 26 -33 54 0 47 37 76 96 76 58 0 74 -8 74 -36 0 -18
6 -24 21 -24 17 0 20 5 17 37 -2 30 -8 39 -28 44 -42 12 -123 9 -155 -5z"/>
<path d="M1735 2070 c3 -5 15 -10 26 -10 18 0 19 -8 19 -175 0 -165 -1 -175
-19 -175 -10 0 -21 -7 -25 -15 -5 -13 14 -15 134 -15 l140 0 0 45 c0 38 -3 45
-20 45 -16 0 -20 -7 -20 -30 l0 -30 -75 0 -75 0 0 171 c0 162 1 171 20 176 42
11 18 23 -46 23 -41 0 -63 -4 -59 -10z"/>
<path d="M2203 2008 c-17 -40 -50 -122 -74 -182 -28 -68 -50 -111 -61 -114 -9
-2 -19 -10 -22 -18 -4 -11 8 -14 59 -14 51 0 65 3 65 15 0 9 -10 15 -26 15
-21 0 -25 3 -19 18 4 9 14 36 22 59 20 58 31 64 109 61 l68 -3 23 -60 c28 -72
28 -75 3 -75 -11 0 -20 -7 -20 -15 0 -12 14 -15 65 -15 50 0 65 3 65 14 0 8
-10 16 -21 18 -18 2 -33 33 -89 183 -61 162 -70 180 -92 183 -22 3 -28 -5 -55
-70z m80 -45 c15 -43 27 -81 27 -85 0 -5 -27 -8 -60 -8 -39 0 -60 4 -60 12 0
17 54 158 61 158 3 0 18 -35 32 -77z"/>
<path d="M2660 2070 c0 -5 9 -10 20 -10 19 0 20 -7 21 -137 0 -160 10 -199 57
-226 39 -23 135 -27 181 -8 58 24 66 50 69 219 l4 152 24 0 c13 0 24 5 24 10
0 6 -30 10 -70 10 -67 0 -98 -15 -43 -22 l26 -3 -2 -145 c-3 -165 -9 -183 -70
-201 -51 -15 -102 -5 -132 27 -23 25 -24 31 -24 172 0 145 0 147 23 150 48 7
19 22 -43 22 -37 0 -65 -4 -65 -10z"/>
<path d="M3100 2071 c0 -5 12 -11 28 -13 l27 -3 0 -170 c0 -169 0 -170 -22
-173 -13 -2 -23 -10 -23 -18 0 -11 15 -14 65 -14 51 0 65 3 65 15 0 10 -10 15
-30 15 l-30 0 0 150 c0 83 4 150 9 150 5 0 64 -74 132 -165 79 -105 130 -165
141 -165 17 0 18 15 18 190 l0 190 25 0 c14 0 25 5 25 10 0 6 -28 10 -65 10
-62 0 -91 -15 -42 -22 22 -3 22 -6 25 -150 1 -82 -1 -148 -6 -148 -5 0 -62 72
-127 160 l-119 160 -48 0 c-26 0 -48 -4 -48 -9z"/>
<path d="M3580 2071 c0 -5 10 -11 23 -13 21 -3 22 -7 25 -123 4 -164 -4 -225
-29 -225 -10 0 -19 -7 -19 -15 0 -12 14 -15 65 -15 51 0 65 3 65 15 0 9 -9 15
-25 15 -25 0 -25 0 -25 98 0 55 3 133 6 175 6 66 10 77 25 77 11 0 19 5 19 10
0 6 -28 10 -65 10 -36 0 -65 -4 -65 -9z"/>
<path d="M3750 2070 c0 -5 8 -10 19 -10 15 0 31 -33 81 -162 35 -90 68 -176
74 -191 8 -21 16 -27 35 -25 21 3 32 24 94 187 51 132 76 185 89 189 40 10 14
22 -47 22 -37 0 -65 -4 -65 -10 0 -5 11 -10 25 -10 14 0 25 -5 25 -11 0 -17
-114 -329 -120 -329 -5 0 -120 319 -120 333 0 4 9 7 20 7 11 0 20 5 20 10 0 6
-28 10 -65 10 -37 0 -65 -4 -65 -10z"/>
<path d="M4200 2071 c0 -5 10 -11 23 -13 22 -3 22 -5 25 -175 l2 -173 -25 0
c-16 0 -25 -6 -25 -15 0 -13 22 -15 135 -15 l135 0 0 45 c0 33 -4 45 -15 45
-10 0 -15 -10 -15 -30 l0 -30 -75 0 -75 0 0 80 0 79 62 3 c38 2 63 8 66 16 3
9 -14 12 -62 12 l-66 0 0 80 0 81 73 -3 c70 -3 72 -4 75 -30 5 -46 32 -35 32
12 l0 40 -135 0 c-77 0 -135 -4 -135 -9z"/>
<path d="M4540 2071 c0 -5 10 -11 23 -13 20 -3 22 -9 25 -73 2 -38 1 -116 -3
-172 -6 -92 -9 -103 -26 -103 -10 0 -19 -7 -19 -15 0 -12 14 -15 65 -15 51 0
65 3 65 15 0 9 -9 15 -25 15 -24 0 -25 2 -25 75 l0 75 38 0 c44 0 52 -7 106
-98 21 -34 46 -67 56 -72 28 -15 60 -12 60 5 0 8 -9 15 -20 15 -13 0 -32 22
-61 71 -23 39 -48 73 -56 76 -21 8 -15 18 17 30 39 15 65 68 56 117 -11 59
-49 76 -173 76 -57 0 -103 -4 -103 -9z m189 -22 c49 -17 64 -60 39 -114 -13
-28 -66 -49 -113 -43 -27 3 -30 7 -33 43 -2 22 -1 59 3 83 6 40 8 42 39 42 18
0 47 -5 65 -11z"/>
<path d="M5270 2071 c0 -5 10 -11 23 -13 22 -3 22 -5 25 -175 l2 -173 -25 0
c-16 0 -25 -6 -25 -15 0 -12 14 -15 65 -15 51 0 65 3 65 15 0 10 -10 15 -27
15 l-26 0 6 107 c4 58 7 137 7 175 0 61 2 68 20 68 11 0 20 5 20 10 0 6 -28
10 -65 10 -36 0 -65 -4 -65 -9z"/>
<path d="M5460 2070 c0 -5 11 -10 25 -10 l25 0 0 -175 c0 -165 -1 -175 -19
-175 -10 0 -21 -7 -25 -15 -4 -13 9 -15 89 -15 182 0 251 34 281 137 33 115
-11 220 -105 252 -42 14 -271 15 -271 1z m269 -36 c45 -26 71 -81 71 -149 0
-116 -62 -175 -185 -175 l-65 0 0 168 c0 93 3 172 8 176 13 14 138 0 171 -20z"/>
<path d="M6056 2018 c-14 -35 -48 -117 -75 -183 -39 -95 -53 -121 -70 -123
-12 -2 -21 -10 -21 -18 0 -11 15 -14 65 -14 51 0 65 3 65 15 0 9 -10 15 -26
15 -29 0 -28 10 10 90 l21 45 74 0 73 0 18 -45 c33 -85 33 -90 11 -90 -12 0
-21 -7 -21 -15 0 -12 14 -15 65 -15 53 0 63 3 59 15 -4 8 -14 15 -23 15 -12 0
-33 47 -82 183 -60 166 -68 182 -91 185 -22 3 -28 -4 -52 -60z m77 -55 c15
-43 27 -81 27 -85 0 -5 -30 -8 -66 -8 -36 0 -64 3 -62 8 2 4 16 42 33 85 16
42 32 77 36 77 3 0 18 -35 32 -77z"/>
<path d="M6350 2071 c0 -6 9 -11 19 -11 11 0 23 -5 27 -11 3 -6 3 -85 -1 -175
-7 -152 -9 -164 -26 -164 -10 0 -19 -7 -19 -15 0 -12 17 -15 90 -15 118 0 184
15 225 51 91 80 83 261 -14 321 -32 20 -52 23 -168 26 -92 3 -133 1 -133 -7z
m261 -37 c50 -30 74 -78 74 -149 -1 -70 -20 -113 -67 -147 -26 -18 -49 -24
-110 -27 l-78 -3 0 169 c0 93 3 173 8 177 13 15 139 0 173 -20z"/>
<path d="M1740 1365 c0 -8 9 -15 20 -15 19 0 20 -7 20 -175 l0 -175 -26 0
c-14 0 -23 -4 -19 -10 4 -6 62 -10 141 -10 l134 0 0 40 c0 47 -27 58 -32 13
-3 -28 -4 -28 -80 -31 l-78 -3 0 86 0 85 65 0 c83 0 85 18 3 22 l-63 3 -3 78
-3 77 76 0 75 0 0 -30 c0 -20 5 -30 15 -30 11 0 15 12 15 45 l0 45 -130 0
c-109 0 -130 -2 -130 -15z"/>
<path d="M2070 1365 c0 -9 9 -15 25 -15 l25 0 0 -175 0 -175 -25 0 c-14 0 -25
-4 -25 -10 0 -6 28 -10 65 -10 37 0 65 4 65 10 0 6 -11 10 -25 10 l-25 0 0
158 c1 125 3 154 13 141 7 -8 64 -84 127 -167 71 -94 121 -152 132 -152 16 0
18 17 20 183 3 180 3 182 26 185 12 2 22 10 22 18 0 11 -15 14 -65 14 -51 0
-65 -3 -65 -15 0 -9 9 -15 25 -15 l25 0 0 -150 c0 -82 -3 -150 -7 -149 -5 0
-62 74 -128 164 l-120 165 -42 0 c-32 0 -43 -4 -43 -15z"/>
<path d="M2710 1366 c0 -8 10 -16 23 -18 19 -3 22 -9 22 -45 -4 -298 -4 -303
-25 -303 -11 0 -20 -4 -20 -10 0 -6 28 -10 65 -10 37 0 65 4 65 10 0 6 -11 10
-25 10 l-25 0 0 175 0 175 25 0 c16 0 25 6 25 15 0 12 -14 15 -65 15 -50 0
-65 -3 -65 -14z"/>
<path d="M2896 1365 c-4 -11 2 -15 24 -15 l30 0 0 -175 0 -175 -25 0 c-14 0
-25 -4 -25 -10 0 -6 28 -10 65 -10 37 0 65 4 65 10 0 6 -11 10 -25 10 l-25 0
0 157 c0 89 4 153 9 148 4 -6 61 -81 126 -167 79 -106 124 -158 136 -158 18 0
19 11 19 185 l0 185 25 0 c16 0 25 6 25 15 0 12 -14 15 -65 15 -51 0 -65 -3
-65 -15 0 -9 9 -15 25 -15 l25 0 0 -150 c0 -82 -3 -150 -7 -149 -5 0 -62 74
-128 164 l-120 164 -41 1 c-28 0 -44 -5 -48 -15z"/>
<path d="M3360 1335 c0 -33 4 -45 15 -45 10 0 15 10 15 30 l0 30 65 0 65 0 -2
-172 c-3 -171 -3 -173 -25 -176 -51 -7 -19 -22 47 -22 40 0 70 4 70 10 0 6
-11 10 -24 10 -14 0 -28 5 -32 11 -3 6 -3 85 1 175 l7 164 59 0 c59 0 59 0 59
-30 0 -24 4 -30 21 -30 17 0 20 4 15 23 -3 12 -6 32 -6 45 0 22 0 22 -175 22
l-175 0 0 -45z"/>
<path d="M3770 1365 c0 -8 9 -15 20 -15 19 0 20 -7 20 -175 l0 -175 -26 0
c-14 0 -23 -4 -19 -10 4 -6 62 -10 141 -10 l134 0 0 40 c0 48 -24 56 -33 10
l-6 -30 -76 0 -75 0 0 85 0 85 65 0 c83 0 85 18 3 22 l-63 3 -3 78 -3 77 76 0
75 0 0 -30 c0 -20 5 -30 15 -30 11 0 15 12 15 45 l0 45 -130 0 c-109 0 -130
-2 -130 -15z"/>
<path d="M4100 1365 c0 -9 9 -15 25 -15 l25 0 0 -175 0 -175 -25 0 c-14 0 -25
-4 -25 -10 0 -6 30 -10 70 -10 40 0 70 4 70 10 0 6 -11 10 -25 10 -25 0 -25 1
-25 80 l0 80 30 0 c36 0 56 -19 114 -110 37 -59 44 -65 79 -68 39 -3 53 14 15
20 -16 2 -35 24 -63 70 -22 37 -49 74 -60 82 -19 14 -19 15 8 21 40 11 67 50
67 100 0 81 -45 104 -197 105 -67 0 -83 -3 -83 -15z m214 -36 c28 -22 36 -73
16 -109 -12 -22 -60 -40 -106 -40 l-34 0 0 85 0 85 49 0 c34 0 56 -6 75 -21z"/>
<path d="M4480 1365 c0 -9 9 -15 25 -15 l25 0 0 -175 0 -175 -25 0 c-14 0 -25
-4 -25 -10 0 -6 28 -10 65 -10 37 0 65 4 65 10 0 6 -11 10 -25 10 l-25 0 0
155 c0 85 1 155 3 155 2 0 59 -74 128 -165 77 -102 130 -165 141 -165 16 0 18
17 20 183 3 180 3 182 26 185 12 2 22 10 22 18 0 11 -15 14 -65 14 -51 0 -65
-3 -65 -15 0 -9 9 -15 25 -15 l25 0 0 -150 c0 -82 -3 -150 -7 -149 -5 0 -62
74 -128 165 l-120 164 -42 0 c-32 0 -43 -4 -43 -15z"/>
<path d="M4950 1365 c0 -9 9 -15 25 -15 l25 0 0 -175 0 -175 -25 0 c-14 0 -25
-4 -25 -10 0 -6 52 -10 135 -10 l135 0 0 24 c0 13 3 31 6 40 4 12 0 16 -15 16
-17 0 -21 -6 -21 -30 l0 -30 -75 0 -75 0 0 85 0 85 65 0 c37 0 65 4 65 10 0 6
-28 10 -65 10 l-65 0 0 80 0 80 75 0 75 0 0 -30 c0 -20 5 -30 15 -30 11 0 15
12 15 45 l0 45 -135 0 c-113 0 -135 -2 -135 -15z"/>
<path d="M5280 1335 c0 -33 4 -45 15 -45 10 0 15 10 15 30 l0 30 65 0 65 0 0
-152 c0 -173 -4 -198 -31 -198 -11 0 -19 -4 -19 -10 0 -6 30 -10 70 -10 40 0
70 4 70 10 0 6 -13 10 -30 10 l-30 0 0 144 c0 79 3 158 6 175 6 30 7 31 65 31
59 0 59 0 59 -30 0 -22 5 -30 18 -30 14 0 17 7 14 45 l-4 45 -174 0 -174 0 0
-45z"/>
</g>
</svg>
